<?xml version="1.0" standalone="no"?>
<!DOCTYPE svg PUBLIC "-//W3C//DTD SVG 20010904//EN"
 "http://www.w3.org/TR/2001/REC-SVG-20010904/DTD/svg10.dtd">
<svg version="1.0" xmlns="http://www.w3.org/2000/svg"
 width="528.000000pt" height="473.000000pt" viewBox="0 0 528.000000 473.000000"
 preserveAspectRatio="xMidYMid meet">

<g transform="translate(0.000000,473.000000) scale(0.100000,-0.100000)"
fill="#2a2f74" stroke="none">
<path d="M2717 4470 c-43 -38 -48 -40 -114 -40 -48 0 -76 -5 -93 -17 -16 -11
-39 -16 -71 -14 -51 3 -89 -11 -89 -33 0 -10 8 -11 38 -4 67 18 124 -23 70
-50 -22 -10 -21 -11 10 -11 19 -1 41 -10 53 -22 20 -20 21 -28 15 -97 -8 -87
-30 -136 -80 -180 -20 -17 -50 -53 -66 -79 -30 -48 -42 -41 -16 10 14 26 14
27 -13 27 -71 0 -84 67 -33 168 43 86 46 106 19 137 -73 85 -388 2 -704 -187
-134 -80 -381 -256 -518 -371 -11 -9 -37 -30 -58 -46 -47 -36 -99 -100 -94
-115 7 -20 74 -18 124 5 26 12 80 51 118 88 104 98 214 191 227 191 6 0 -42
-55 -107 -122 -111 -114 -117 -122 -95 -130 28 -10 168 6 235 29 49 16 121 51
220 108 40 23 47 25 35 10 -8 -11 -23 -28 -35 -37 -19 -17 -18 -17 34 -11 62
7 81 -7 81 -62 0 -52 26 -124 68 -184 21 -31 42 -62 46 -68 5 -9 -24 -33 -84
-72 -85 -56 -128 -87 -157 -111 -10 -9 -13 -164 -13 -718 1 -389 5 -765 10
-837 5 -71 7 -131 6 -132 -2 -3 -135 84 -150 98 -6 5 2 17 18 30 18 14 25 27
21 39 -3 11 4 30 20 49 20 23 24 35 17 47 -6 11 -6 30 0 51 8 29 6 37 -8 47
-10 8 -17 25 -16 44 0 21 -6 37 -19 45 -10 8 -24 28 -30 45 -6 18 -18 32 -27
32 -10 0 -25 7 -36 15 -16 12 -22 11 -52 -13 -26 -21 -34 -35 -34 -59 0 -17
-6 -38 -13 -45 -19 -18 -14 -115 7 -156 41 -80 -23 -51 -91 41 -38 53 -73 137
-97 238 -6 29 -10 28 80 28 17 0 37 7 44 16 7 8 20 15 29 15 20 0 91 62 91 80
0 6 8 23 19 36 24 30 15 87 -14 93 -11 2 -23 8 -26 13 -4 6 -17 5 -35 -4 -16
-8 -36 -13 -45 -11 -9 2 -22 -3 -29 -12 -7 -8 -23 -15 -35 -15 -16 0 -26 -9
-35 -30 -7 -16 -18 -30 -26 -30 -7 0 -16 -16 -20 -35 -3 -19 -10 -35 -14 -35
-9 0 -20 101 -20 186 l0 64 26 -10 c19 -7 31 -6 45 4 13 9 35 12 64 8 34 -3
46 -1 51 11 3 8 27 21 54 27 38 9 50 17 54 36 4 15 20 31 41 41 26 12 35 23
35 41 0 13 11 38 26 54 14 17 23 37 20 45 -4 8 -6 30 -6 48 0 26 -5 35 -22 40
-13 3 -33 11 -45 17 -17 9 -32 7 -64 -5 -27 -11 -47 -13 -58 -7 -13 6 -24 1
-45 -21 -16 -16 -38 -29 -52 -29 -17 0 -31 -11 -49 -40 -30 -48 -60 -55 -52
-12 10 59 49 227 52 230 2 2 10 0 17 -4 18 -12 137 -14 144 -3 3 5 17 9 31 9
15 0 33 10 45 25 11 14 26 25 34 25 8 0 17 8 21 18 3 9 15 27 26 39 11 12 21
38 22 58 2 31 -2 37 -29 50 -36 16 -111 15 -143 -3 -12 -7 -30 -12 -41 -12
-11 0 -27 -11 -36 -25 -9 -14 -22 -25 -30 -25 -7 0 -20 -17 -29 -37 -11 -28
-15 -32 -16 -17 -2 40 19 128 35 145 9 10 13 22 10 28 -4 6 -1 21 5 33 14 26
13 108 -2 123 -5 5 -9 20 -9 33 0 15 -7 26 -18 29 -10 2 -23 17 -29 32 -7 20
-19 30 -43 35 -41 8 -70 -18 -70 -64 0 -18 -6 -33 -15 -36 -11 -5 -12 -11 -4
-26 6 -10 9 -29 7 -42 -1 -12 5 -34 15 -49 9 -14 17 -32 17 -40 0 -8 11 -19
25 -25 14 -6 25 -18 25 -27 0 -8 11 -17 25 -21 18 -4 24 -12 21 -23 -34 -120
-48 -161 -55 -165 -5 -3 -16 3 -26 14 -13 15 -16 29 -11 58 5 34 2 42 -24 67
-16 15 -32 41 -35 57 -5 20 -17 33 -40 42 -18 8 -41 26 -51 41 -12 19 -23 25
-38 21 -12 -3 -32 4 -51 18 -38 29 -63 38 -70 26 -4 -6 -24 -10 -46 -10 -33 0
-39 -3 -39 -22 0 -12 -5 -36 -12 -55 -10 -28 -9 -38 9 -70 13 -24 19 -48 16
-65 -4 -20 0 -27 16 -33 21 -6 51 -52 51 -77 0 -8 16 -20 35 -27 20 -7 43 -23
51 -37 13 -19 25 -24 60 -24 31 0 50 -6 64 -20 22 -22 46 -25 84 -10 14 5 26
6 26 2 0 -4 -12 -45 -26 -92 -14 -47 -28 -91 -30 -99 -4 -11 -7 -11 -20 0 -14
11 -19 9 -35 -11 -24 -33 -25 -70 -1 -70 10 0 23 5 29 11 8 8 9 -38 5 -163 -4
-155 8 -364 25 -437 5 -21 3 -23 -13 -17 -10 4 -44 12 -74 18 -30 5 -58 12
-62 14 -4 2 4 16 18 31 15 17 22 33 18 45 -3 10 4 33 16 53 15 25 19 39 12 51
-5 10 -7 34 -5 55 4 25 0 45 -11 60 -9 13 -16 38 -16 55 0 23 -5 33 -20 37
-10 3 -27 21 -37 41 -9 20 -24 36 -32 36 -9 1 -26 6 -39 14 -21 11 -27 9 -58
-20 -28 -27 -34 -40 -34 -72 0 -23 -6 -45 -15 -52 -11 -9 -12 -17 -4 -32 6
-12 9 -38 6 -59 -4 -29 0 -45 18 -69 13 -18 21 -38 19 -45 -3 -7 11 -25 30
-40 52 -40 48 -62 -6 -34 -50 25 -160 105 -171 124 -4 8 -1 32 7 54 26 76 -19
195 -80 215 -24 7 -60 -27 -63 -59 -4 -47 1 -101 9 -109 6 -6 10 -18 10 -27 0
-10 6 -20 13 -22 7 -3 4 -6 -6 -6 -10 -1 -27 4 -37 9 -13 7 -21 7 -25 0 -3 -5
-24 -10 -46 -10 -21 0 -39 -4 -39 -8 0 -4 -15 -13 -32 -20 -68 -24 -66 -112 2
-127 16 -4 32 -11 35 -16 4 -5 24 -9 46 -9 21 0 39 -5 39 -10 0 -6 11 -3 25 6
14 9 34 14 44 11 12 -3 27 3 37 14 9 10 26 19 36 19 10 0 21 7 24 15 5 12 21
3 73 -37 74 -59 173 -111 244 -128 63 -17 73 -34 13 -25 -31 5 -46 4 -46 -4 0
-6 -17 -11 -39 -11 -30 0 -40 -4 -44 -19 -3 -11 -21 -27 -41 -35 -23 -10 -36
-22 -36 -33 0 -11 -6 -25 -12 -31 -19 -19 53 -82 92 -82 16 0 31 -4 34 -8 8
-13 114 -4 139 13 13 8 31 13 38 10 9 -3 21 6 32 25 11 18 26 30 39 30 11 0
22 8 25 20 3 11 8 20 11 20 4 0 97 -76 128 -105 6 -5 41 -37 79 -70 38 -33 85
-75 104 -92 19 -18 58 -50 87 -70 29 -21 52 -42 50 -48 -1 -5 -18 -14 -37 -19
-19 -5 -37 -15 -41 -22 -4 -6 -20 -17 -35 -23 -16 -7 -35 -26 -43 -44 -14 -30
-14 -33 12 -59 15 -16 37 -28 51 -28 13 0 30 -7 37 -15 7 -8 16 -12 22 -9 5 3
29 6 53 6 26 0 49 6 56 14 6 8 22 14 34 14 13 0 25 5 27 12 2 6 25 -24 51 -68
66 -110 95 -149 169 -225 82 -85 161 -143 262 -189 123 -58 182 -70 356 -77
223 -8 309 9 485 93 176 85 386 330 455 529 22 66 47 72 42 11 -4 -40 0 -49
35 -87 34 -36 46 -42 91 -47 42 -4 62 1 118 27 36 17 77 31 89 31 20 0 11 12
-53 80 -45 46 -89 82 -104 86 -16 3 -28 9 -28 13 0 3 30 29 68 58 37 28 78 63
91 77 24 25 42 34 40 19 -3 -20 3 -35 21 -53 l20 -20 40 41 c48 51 55 95 16
105 -23 5 -18 11 57 78 82 72 161 136 169 136 2 0 2 -18 0 -39 -3 -33 2 -48
29 -85 51 -71 108 -82 224 -41 39 14 78 25 89 25 15 0 14 4 -10 29 -16 15 -45
52 -64 80 -36 53 -93 90 -141 92 -19 1 -17 3 11 10 68 19 177 77 238 128 56
47 62 50 62 29 0 -33 36 -87 66 -98 41 -16 79 -12 152 18 l70 28 -56 61 c-59
64 -88 78 -146 71 l-34 -4 39 49 c44 56 47 80 21 150 l-19 48 -46 -45 c-36
-35 -47 -52 -47 -76 0 -40 16 -69 43 -79 19 -7 13 -13 -48 -55 -39 -26 -88
-60 -110 -76 -45 -33 -66 -39 -42 -12 46 51 57 128 32 222 -8 30 -15 75 -15
99 l0 44 -22 -20 c-13 -12 -58 -42 -101 -68 -98 -59 -130 -103 -130 -178 0
-88 46 -147 115 -147 25 -1 29 -3 17 -10 -16 -9 -192 -50 -197 -46 -1 2 5 43
15 92 17 95 25 442 10 499 l-7 30 15 -26 c8 -15 30 -34 49 -43 97 -46 189 14
222 146 9 35 23 76 31 91 14 28 14 29 -9 21 -12 -4 -51 -6 -85 -6 -67 1 -135
-17 -166 -46 -11 -9 -30 -39 -42 -67 l-22 -49 -7 47 c-4 26 -20 88 -36 139
l-29 91 24 -25 c14 -15 34 -29 46 -33 37 -12 106 5 149 36 61 44 73 81 74 230
l1 126 -50 -22 c-27 -12 -81 -35 -118 -50 -53 -22 -76 -38 -103 -73 -20 -26
-34 -56 -34 -73 0 -55 -17 -37 -39 42 -12 44 -24 86 -28 94 -4 11 2 15 21 15
56 0 106 58 106 122 0 18 -9 52 -19 74 -10 23 -22 56 -26 74 l-7 32 -18 -26
c-9 -15 -34 -38 -54 -52 -19 -13 -43 -38 -51 -54 -21 -40 -19 -102 4 -131 10
-13 24 -55 30 -94 7 -38 15 -81 18 -95 l6 -25 -25 27 c-18 19 -40 28 -74 33
-27 3 -59 7 -72 9 -18 3 -22 0 -17 -13 4 -9 11 -38 18 -64 15 -67 45 -97 97
-97 27 0 47 7 61 21 25 25 25 25 33 -26 7 -40 7 -40 -25 -40 -42 0 -46 -15
-13 -54 21 -25 29 -29 40 -20 8 7 16 10 18 8 5 -6 36 -188 36 -213 0 -14 -9
-6 -30 27 -36 58 -76 75 -190 86 -47 4 -95 13 -108 20 l-22 12 20 -39 c11 -21
23 -60 26 -87 15 -114 69 -183 149 -193 74 -8 112 4 141 46 l26 37 -6 -108
c-3 -60 -10 -116 -16 -125 -8 -14 -10 -14 -10 -2 -1 24 -37 60 -68 69 -16 5
-61 6 -100 3 l-71 -5 19 -27 c11 -16 20 -31 20 -35 0 -23 37 -78 61 -90 33
-17 92 -19 120 -5 25 14 25 5 -1 -96 -33 -128 -113 -257 -183 -296 -16 -8 -17
-7 -8 11 22 41 6 134 -32 179 -6 8 -20 33 -29 56 -9 22 -17 35 -17 28 -1 -8
-25 -39 -55 -71 -93 -97 -101 -163 -30 -240 17 -18 34 -25 60 -25 37 0 37 0
13 -16 -13 -8 -37 -27 -54 -41 -39 -34 -188 -119 -207 -119 -14 0 -14 6 -5 38
6 24 12 323 14 848 4 664 2 814 -9 823 -39 32 -81 62 -155 110 -46 29 -83 56
-83 59 0 10 54 77 91 114 43 42 106 63 159 53 72 -14 75 -13 78 27 4 46 -15
79 -82 140 -28 26 -47 50 -43 54 4 4 33 -9 64 -28 83 -51 172 -94 220 -107 69
-19 199 -32 223 -23 22 8 16 16 -95 130 -65 67 -114 122 -108 122 13 0 133
-100 223 -186 80 -77 147 -114 204 -114 29 0 36 4 36 20 0 30 -46 76 -185 185
-70 55 -144 114 -165 130 -35 29 -254 177 -330 223 -175 106 -429 200 -570
209 -66 5 -78 3 -102 -17 -37 -29 -36 -69 2 -153 34 -76 38 -126 12 -150 -27
-24 -62 -21 -113 11 -83 53 -127 153 -114 257 3 30 9 55 13 55 4 0 24 -5 44
-10 27 -8 44 -8 58 0 29 16 26 48 -7 56 l-26 7 35 18 c36 19 45 31 58 85 l7
31 -65 -34 c-86 -45 -107 -42 -106 15 0 23 0 42 -1 42 -1 0 -23 -18 -48 -40z
m-97 -78 c0 -4 -15 -15 -34 -23 -28 -13 -37 -13 -51 -3 -20 15 -13 20 40 27
17 2 33 5 38 6 4 0 7 -3 7 -7z m10 -455 c33 -53 23 -110 -33 -190 -10 -14 -9
-19 3 -27 21 -13 53 10 66 49 14 44 34 21 34 -42 0 -27 3 -47 8 -45 147 75
237 94 361 77 81 -12 89 -17 49 -37 -18 -10 -38 -28 -45 -42 -11 -22 -10 -26
7 -34 26 -12 99 1 138 24 17 11 45 38 61 61 l31 41 10 -26 c14 -37 13 -80 -4
-119 l-13 -33 59 20 c51 17 65 18 113 7 52 -12 135 -61 135 -81 0 -6 -15 -10
-34 -10 -79 0 -99 -10 -181 -96 -44 -46 -98 -91 -120 -101 -37 -16 -88 -18
-609 -21 -652 -3 -659 -3 -721 62 -44 45 -100 137 -111 181 l-7 28 39 -27 c50
-34 81 -34 94 0 24 61 -56 132 -160 141 l-63 6 26 23 c70 60 169 37 273 -62
82 -77 92 -84 136 -84 42 0 58 15 58 53 0 42 -30 86 -73 109 -22 11 -37 21
-35 23 7 7 162 -16 193 -29 18 -8 52 -31 76 -53 39 -35 42 -36 36 -13 -4 14
-10 52 -13 85 -6 70 6 99 55 132 42 28 55 29 41 2 -25 -45 37 -68 66 -24 15
23 14 48 -3 108 -4 16 -2 17 17 7 11 -6 30 -26 40 -43z m5 -717 c540 0 588 1
632 18 l48 18 93 -60 93 -61 -1 -767 c0 -694 -4 -839 -26 -955 -7 -38 -3 -37
-113 -18 -90 16 -92 17 -191 116 -41 41 -92 79 -136 102 -81 42 -128 89 -143
143 -20 71 -62 92 -111 54 -27 -21 -55 -26 -65 -10 -4 6 -25 20 -48 31 -33 17
-53 20 -101 16 -106 -8 -218 -74 -361 -211 -27 -27 -66 -60 -85 -75 -19 -14
-71 -55 -115 -90 -67 -53 -128 -91 -149 -91 -2 0 -18 18 -36 39 -54 70 -60
163 -60 993 l0 718 97 63 96 64 49 -19 c45 -17 89 -18 633 -18z m56 -1451 c49
-31 79 -30 108 5 21 26 29 20 60 -46 16 -35 36 -70 43 -78 20 -24 78 -63 131
-87 40 -19 163 -130 154 -140 -2 -1 -37 2 -78 8 -203 28 -868 20 -1021 -12
-89 -19 -86 -8 18 76 54 44 124 104 154 133 118 113 268 189 350 176 19 -3 56
-19 81 -35z m424 -434 c214 -24 325 -41 325 -51 0 -13 -71 -129 -121 -199
-101 -141 -214 -233 -355 -290 -119 -48 -189 -58 -367 -53 -132 4 -162 9 -232
33 -100 34 -144 56 -221 111 -100 70 -212 205 -283 339 l-32 60 51 12 c29 6
113 19 188 27 76 9 166 20 202 25 36 5 190 9 343 10 236 1 311 -3 502 -24z"/>
<path d="M2393 3084 c-43 -25 -54 -49 -32 -71 9 -9 8 -19 -6 -39 -15 -23 -22
-26 -59 -21 -45 6 -96 52 -96 87 0 26 -5 25 -65 -8 -54 -30 -89 -74 -106 -135
-8 -32 -7 -51 11 -109 21 -69 21 -70 41 -52 43 39 159 4 159 -46 0 -20 -32
-111 -50 -142 -15 -26 -13 -28 23 -28 32 0 33 2 68 93 145 373 142 367 166
373 13 4 23 13 23 21 0 24 -22 103 -29 103 -3 0 -25 -12 -48 -26z"/>
<path d="M2416 2883 c-14 -38 -35 -93 -46 -123 -12 -30 -35 -90 -51 -132 l-28
-78 369 0 c342 0 369 1 374 18 3 9 17 58 30 107 14 50 37 128 51 174 14 47 25
89 25 93 0 4 -157 8 -349 8 l-349 0 -26 -67z m454 8 c0 -5 -7 -14 -15 -21 -9
-7 -25 -26 -36 -41 l-20 -28 46 20 c26 11 49 18 53 15 7 -8 -35 -138 -52 -161
-11 -15 -15 -15 -50 5 l-37 23 7 -52 7 -51 -97 0 -97 0 37 45 c20 25 34 45 31
45 -2 0 -24 -7 -47 -15 -24 -8 -45 -14 -47 -12 -4 5 26 94 44 126 7 15 13 32
13 39 0 18 18 15 56 -9 l34 -21 -6 34 c-3 18 -7 41 -9 51 -3 15 7 17 91 17 52
0 94 -4 94 -9z"/>
<path d="M3095 2495 c-39 -30 -83 -65 -99 -78 l-29 -23 19 -29 c37 -60 98
-136 113 -145 11 -5 40 3 91 26 41 19 87 40 102 47 l27 12 -39 65 c-21 36 -53
91 -71 123 -17 31 -35 57 -38 57 -4 0 -38 -25 -76 -55z"/>
<path d="M2145 2490 c3 -5 14 -10 23 -10 9 0 28 -6 41 -13 19 -10 23 -21 25
-67 2 -30 6 -63 10 -72 6 -13 4 -18 -7 -18 -8 0 -17 5 -19 12 -3 8 -9 8 -24 0
-18 -10 -17 -11 9 -21 42 -16 53 -14 90 20 l34 31 -22 63 c-12 34 -25 67 -29
74 -4 6 -34 11 -72 11 -41 0 -63 -4 -59 -10z"/>
<path d="M2100 2462 c0 -13 64 -35 87 -30 12 3 7 8 -17 15 -19 6 -43 14 -52
18 -10 4 -18 3 -18 -3z"/>
<path d="M2101 2416 c18 -20 99 -34 99 -19 0 6 -15 13 -32 16 -18 4 -44 9 -58
13 -23 6 -24 5 -9 -10z"/>
<path d="M2120 2370 c34 -11 60 -11 35 0 -11 5 -29 8 -40 8 -16 0 -15 -2 5 -8z"/>
<path d="M2880 2331 c-30 -21 -71 -47 -90 -58 -100 -55 -101 -56 -94 -88 4
-16 8 -32 11 -35 8 -9 172 84 219 125 46 40 48 44 36 69 -6 14 -15 26 -19 26
-5 0 -33 -17 -63 -39z"/>
<path d="M2128 2343 c7 -3 16 -2 19 1 4 3 -2 6 -13 5 -11 0 -14 -3 -6 -6z"/>
<path d="M2168 2343 c6 -2 18 -2 25 0 6 3 1 5 -13 5 -14 0 -19 -2 -12 -5z"/>
<path d="M2061 2216 c-92 -239 -97 -254 -85 -266 25 -25 51 -1 74 68 13 37 33
90 45 117 12 28 32 75 43 105 l20 56 -27 15 -27 16 -43 -111z"/>
<path d="M2318 2303 l-26 -28 18 -48 c23 -59 81 -148 134 -204 l39 -42 30 37
c34 43 87 152 87 182 0 13 -9 22 -27 26 -43 11 -165 64 -195 85 -33 24 -29 24
-60 -8z"/>
<path d="M2964 2268 c-24 -27 -140 -102 -202 -131 l-49 -23 17 -39 c10 -22 26
-48 37 -57 18 -17 22 -15 104 40 47 31 112 75 146 96 l62 39 -41 49 c-23 26
-44 48 -48 48 -4 0 -15 -10 -26 -22z"/>
<path d="M2626 2167 c-7 -35 -48 -118 -78 -157 l-20 -25 39 -17 c44 -20 106
-23 152 -7 37 13 37 15 11 54 -29 42 -58 110 -66 150 -8 44 -30 45 -38 2z"/>
<path d="M3992 2788 c-7 -7 -12 -21 -12 -32 0 -16 3 -17 12 -8 7 7 20 12 30
12 11 0 18 7 18 20 0 23 -29 27 -48 8z"/>
<path d="M996 2745 c-3 -9 -6 -24 -6 -34 0 -19 40 -61 58 -61 17 0 26 48 16
79 -11 31 -58 42 -68 16z"/>
<path d="M4007 2735 c-20 -19 -11 -49 18 -65 49 -26 82 15 45 56 -27 28 -42
30 -63 9z"/>
<path d="M904 2676 c-3 -8 1 -27 9 -42 l14 -27 19 32 c10 17 23 31 29 31 5 0
3 5 -5 10 -22 14 -60 12 -66 -4z"/>
<path d="M971 2641 c-12 -12 -21 -25 -21 -30 0 -12 29 -41 40 -41 13 0 40 30
40 44 0 7 -9 21 -19 30 -18 17 -20 17 -40 -3z"/>
<path d="M943 2540 c-39 -16 -27 -80 14 -80 18 0 28 9 39 35 7 19 14 39 14 45
0 12 -37 12 -67 0z"/>
<path d="M1222 1608 c-32 -32 1 -88 54 -88 40 0 57 13 50 37 -14 43 -79 76
-104 51z"/>
<path d="M4069 1615 c-1 -3 -2 -18 -3 -35 -1 -25 3 -30 22 -30 13 0 34 -12 47
-26 l24 -26 7 27 c8 33 -13 74 -44 86 -26 10 -51 12 -53 4z"/>
<path d="M940 1555 c-25 -28 -61 -71 -80 -95 -19 -24 -50 -60 -67 -81 -18 -20
-33 -39 -33 -42 0 -8 77 -135 123 -202 135 -198 377 -429 611 -582 66 -43 82
-50 95 -40 58 45 240 210 244 221 6 16 -16 33 -103 79 -30 16 -57 33 -60 36
-3 4 -26 21 -51 39 -75 51 -97 70 -239 212 -132 133 -191 199 -239 270 -13 19
-27 37 -30 40 -7 5 -65 94 -106 164 l-20 34 -45 -53z m41 -217 l-32 -51 33 7
c91 20 92 20 111 -14 11 -17 17 -33 15 -35 -29 -29 -123 -93 -129 -89 -20 12
-5 34 52 74 33 23 58 44 56 46 -4 4 -21 1 -130 -27 -72 -18 -74 5 -10 102 38
57 48 67 56 54 6 -12 0 -31 -22 -67z m200 -175 c20 -37 -6 -78 -49 -78 -28 0
-32 -3 -32 -27 0 -15 -4 -30 -10 -33 -12 -8 -24 38 -17 71 5 30 -15 43 -39 24
-11 -10 -18 -10 -26 -2 -13 13 -16 11 62 77 l55 46 22 -27 c12 -15 27 -38 34
-51z m119 -208 c-44 -45 -50 -69 -21 -85 27 -14 27 -14 76 31 40 37 45 39 62
25 54 -47 104 -87 156 -125 31 -23 57 -46 57 -51 0 -20 -18 -18 -52 5 -26 17
-38 21 -46 13 -9 -9 -2 -18 23 -35 19 -13 35 -28 35 -33 0 -21 -22 -19 -55 6
-31 24 -35 24 -41 9 -5 -11 -1 -21 8 -26 8 -4 26 -17 39 -28 22 -18 22 -20 7
-26 -12 -5 -36 4 -68 25 l-50 32 25 30 c14 17 32 43 40 59 14 26 14 29 -6 39
-24 13 -48 -4 -77 -52 -16 -28 -36 -36 -46 -19 -4 5 12 32 34 60 39 49 40 51
23 69 -18 19 -19 18 -55 -16 -45 -43 -91 -48 -120 -13 -30 38 -23 76 25 128
23 26 36 43 29 39 -8 -5 -21 -1 -33 10 -19 17 -21 16 -64 -26 -31 -30 -49 -41
-61 -36 -15 6 -10 14 31 56 41 41 46 51 36 64 -7 9 -10 23 -7 32 5 13 20 2 71
-52 l65 -69 -40 -40z"/>
<path d="M1102 1178 c-16 -16 -15 -23 4 -42 35 -35 61 -4 30 37 -16 20 -18 21
-34 5z"/>
<path d="M4265 1533 c-207 -328 -464 -587 -743 -748 -45 -26 -80 -50 -77 -55
3 -4 51 -48 107 -96 56 -49 110 -97 120 -107 10 -9 23 -17 28 -17 11 0 160 97
170 110 3 4 22 18 43 32 95 64 275 235 388 368 49 58 161 222 193 281 l19 36
-44 54 c-100 121 -159 189 -168 189 -3 0 -19 -21 -36 -47z m-33 -330 c74 -70
-13 -181 -103 -132 -18 9 -20 8 -17 -13 2 -18 10 -24 36 -26 51 -5 22 -32 -34
-32 -50 0 -61 -11 -34 -35 15 -13 16 -20 7 -30 -10 -11 -23 -3 -69 43 -32 31
-58 60 -58 64 0 3 20 23 45 44 39 31 49 35 68 27 21 -10 22 -9 19 28 -8 79 81
118 140 62z m-206 -282 c12 -42 -45 -98 -88 -88 -32 8 -104 95 -90 109 8 8 23
-1 52 -30 42 -44 58 -50 78 -30 18 18 15 31 -22 80 -25 33 -32 48 -24 56 13
13 84 -59 94 -97z m-89 -116 c-2 -5 -18 -10 -35 -10 -34 -1 -84 -39 -76 -59 3
-7 -2 -18 -10 -25 -17 -14 -16 -14 -41 93 -23 101 -13 107 86 54 44 -24 77
-47 76 -53z"/>
<path d="M4137 1182 c-21 -23 -21 -41 -1 -70 17 -24 53 -29 72 -10 18 18 14
63 -6 81 -24 22 -45 21 -65 -1z"/>
<path d="M4025 1060 c-15 -16 -16 -22 -5 -35 12 -14 15 -14 31 1 22 20 25 54
6 54 -8 0 -22 -9 -32 -20z"/>
<path d="M3804 828 c3 -13 6 -26 6 -31 0 -8 40 15 40 24 0 3 -12 11 -26 18
-25 11 -26 10 -20 -11z"/>
<path d="M1357 1544 c-9 -9 12 -60 33 -79 40 -37 68 15 34 63 -14 20 -53 30
-67 16z"/>
<path d="M4013 1495 c-35 -35 -38 -59 -11 -91 43 -54 158 29 126 91 -25 47
-68 47 -115 0z"/>
<path d="M1285 1486 c-15 -23 -15 -27 0 -50 26 -40 85 -30 85 14 0 19 -40 60
-58 60 -6 0 -19 -11 -27 -24z"/>
<path d="M1222 1474 c-41 -28 -18 -74 37 -74 18 0 19 2 4 30 -8 17 -12 37 -9
45 7 19 -4 19 -32 -1z"/>
<path d="M1372 1407 c-28 -30 -30 -82 -3 -97 29 -15 58 -12 65 6 10 25 7 37
-17 77 l-23 38 -22 -24z"/>
<path d="M1977 816 l-28 -23 46 -24 46 -24 19 23 c19 24 19 24 -9 48 -35 29
-39 29 -74 0z"/>
<path d="M3227 819 c-26 -19 -26 -21 -10 -45 18 -28 44 -27 90 3 l25 17 -26
23 c-33 28 -46 29 -79 2z"/>
<path d="M1877 758 c-30 -57 -91 -162 -111 -191 -11 -16 -15 -31 -10 -36 20
-18 254 -105 378 -141 207 -59 315 -74 511 -74 196 1 307 17 495 70 131 37
376 129 386 145 5 8 -133 259 -143 259 -2 0 -23 -11 -46 -24 -169 -97 -457
-166 -692 -166 -227 0 -445 49 -651 145 -53 25 -98 45 -99 45 -1 0 -9 -15 -18
-32z m254 -162 c13 -21 19 -25 19 -13 0 11 8 17 21 17 14 0 19 -5 16 -14 -15
-39 -28 -99 -24 -111 3 -7 19 -15 36 -18 20 -4 31 -13 31 -23 0 -14 -7 -15
-41 -10 -63 10 -80 22 -70 49 4 12 11 34 15 50 l7 28 -22 -22 c-21 -21 -45
-22 -91 -4 -11 4 -18 0 -23 -15 -9 -28 -30 -20 -28 11 1 13 11 50 23 81 l21
56 45 -15 c31 -10 52 -26 65 -47z m1102 -40 c9 -36 20 -72 23 -80 4 -11 0 -16
-14 -16 -15 0 -23 12 -35 53 -8 28 -16 44 -16 34 -1 -10 -8 -29 -17 -43 l-17
-24 -33 25 -33 25 14 -35 c16 -37 20 -74 8 -76 -5 0 -21 -3 -36 -5 -16 -3 -34
0 -41 5 -19 16 -88 1 -94 -21 -4 -17 -42 -27 -42 -10 0 4 11 44 24 88 30 102
44 103 106 11 25 -37 46 -63 48 -57 2 5 -4 34 -12 64 -9 30 -16 61 -16 70 0
24 34 19 68 -9 l30 -25 7 28 c7 31 32 62 49 62 7 0 20 -29 29 -64z m-933 2 c0
-7 -5 -31 -10 -53 -12 -52 -5 -75 24 -75 32 0 45 18 52 74 5 37 11 46 26 46
21 0 21 -9 -3 -103 -15 -57 -70 -71 -124 -31 -22 17 -25 77 -6 127 10 27 41
38 41 15z m224 -29 c32 -25 18 -44 -20 -27 -25 12 -59 4 -50 -11 4 -5 20 -12
36 -16 17 -4 36 -15 44 -26 13 -19 14 -18 20 16 9 48 43 69 98 62 55 -7 71
-29 65 -90 -2 -26 0 -50 5 -53 5 -3 4 -12 -3 -20 -8 -10 -15 -11 -23 -4 -7 5
-29 7 -49 3 -31 -5 -40 -1 -65 24 l-30 29 -21 -24 c-18 -21 -28 -24 -63 -19
-46 6 -78 31 -62 47 8 8 20 6 41 -6 28 -17 63 -14 63 4 0 5 -18 17 -40 27 -22
10 -45 24 -51 31 -15 18 -3 49 24 62 33 16 52 14 81 -9z m356 -58 c0 -61 -3
-72 -22 -85 -30 -21 -71 -20 -97 2 -29 23 -43 142 -18 142 9 0 19 -10 21 -22
16 -86 22 -103 39 -106 37 -7 50 18 43 80 -7 54 -6 58 14 58 18 0 20 -6 20
-69z"/>
<path d="M2037 588 c-7 -25 8 -39 38 -36 30 4 30 33 0 46 -33 15 -32 16 -38
-10z"/>
<path d="M2967 503 c-15 -15 -6 -43 13 -43 11 0 20 3 20 8 -1 14 -27 42 -33
35z"/>
<path d="M2602 488 c-7 -7 -12 -24 -12 -38 0 -33 17 -50 50 -50 32 0 50 17 50
45 0 43 -60 71 -88 43z"/>
<path d="M1751 623 c-16 -16 -81 -73 -144 -127 l-115 -99 -17 -85 c-9 -46 -15
-85 -13 -87 8 -8 174 39 184 51 40 49 94 114 127 149 20 23 37 45 37 48 0 3
-20 15 -45 26 -25 11 -45 24 -45 28 0 4 16 34 35 66 19 31 32 57 30 57 -3 0
-18 -12 -34 -27z"/>
<path d="M3530 591 c17 -26 30 -55 30 -63 0 -8 -21 -23 -46 -34 l-45 -19 73
-86 c41 -47 81 -94 89 -105 9 -14 43 -28 99 -42 46 -11 86 -19 88 -17 5 5 -19
146 -27 161 -7 14 -277 254 -285 254 -3 0 8 -22 24 -49z"/>
<path d="M3428 462 c-10 -2 -18 -8 -18 -14 0 -14 33 -68 41 -68 18 0 39 13 39
24 -1 21 -45 62 -62 58z"/>
<path d="M1806 426 l-26 -35 29 -16 c29 -14 31 -14 45 8 45 68 1 107 -48 43z"/>
</g>
</svg>
